<svg width="16" height="16" viewBox="0 0 16 16" fill="none" xmlns="http://www.w3.org/2000/svg">
<path fill-rule="evenodd" clip-rule="evenodd" d="M8.37512 3.3335C8.37512 3.12639 8.20723 2.9585 8.00012 2.9585C7.79302 2.9585 7.62512 3.12639 7.62512 3.3335V7.62512H3.3335C3.12639 7.62512 2.9585 7.79302 2.9585 8.00012C2.9585 8.20723 3.12639 8.37512 3.3335 8.37512H7.62512V12.6668C7.62512 12.8739 7.79302 13.0418 8.00012 13.0418C8.20723 13.0418 8.37512 12.8739 8.37512 12.6668V8.37512H12.6668C12.8739 8.37512 13.0418 8.20723 13.0418 8.00012C13.0418 7.79302 12.8739 7.62512 12.6668 7.62512H8.37512V3.3335Z" fill="white"/>
</svg>
