<svg width="33" height="33" viewBox="0 0 33 33" fill="none" xmlns="http://www.w3.org/2000/svg">
<path fill-rule="evenodd" clip-rule="evenodd" d="M10.2937 29.5627H21.772C25.9881 29.5627 29.2227 28.0397 28.304 21.9105L27.2342 13.6038C26.6678 10.5455 24.7171 9.375 23.0053 9.375H9.00993C7.27309 9.375 5.43557 10.6336 4.78109 13.6038L3.7113 21.9105C2.93099 27.3476 6.07744 29.5627 10.2937 29.5627Z" stroke="#FF9F47" stroke-width="1.5" stroke-linecap="round" stroke-linejoin="round"/>
<path d="M10.1047 9.07289C10.1047 5.79204 12.7644 3.13238 16.0452 3.13238C17.6251 3.12568 19.1425 3.7486 20.2621 4.86339C21.3816 5.97817 22.0109 7.493 22.0109 9.07289" stroke="#FF9F47" stroke-width="1.5" stroke-linecap="round" stroke-linejoin="round"/>
<path d="M11.9675 15.2651H12.0305" stroke="#FF9F47" stroke-width="1.5" stroke-linecap="round" stroke-linejoin="round"/>
<path d="M19.9846 15.2651H20.0476" stroke="#FF9F47" stroke-width="1.5" stroke-linecap="round" stroke-linejoin="round"/>
</svg>
